<?xml version="1.0" encoding="UTF-8"?>
<svg width="80" height="80" viewBox="0 0 80 80" fill="none" xmlns="http://www.w3.org/2000/svg">
    <rect width="80" height="80" rx="40" fill="#E8F3FF"/>
    <path d="M60 35C60 32.791 58.209 31 56 31H47.472C46.613 29.789 45.396 28.819 43.958 28.215L40 26.723V25C40 22.791 38.209 21 36 21H24C21.791 21 20 22.791 20 25V45C20 47.209 21.791 49 24 49H32.528C33.387 50.211 34.604 51.181 36.042 51.785L40 53.277V55C40 57.209 41.791 59 44 59H56C58.209 59 60 57.209 60 55V35ZM24 45V25H36V45H24ZM40 48.723L36.042 47.231C35.396 46.951 34.821 46.537 34.341 46.036L40 43.277V48.723ZM56 55H44V35H56V55Z" fill="#2196F3"/>
</svg> 