<?xml version="1.0" encoding="UTF-8"?>
<svg width="80" height="80" viewBox="0 0 80 80" fill="none" xmlns="http://www.w3.org/2000/svg">
    <rect width="80" height="80" rx="40" fill="#E8F3FF"/>
    <path d="M40 20C31.716 20 25 26.716 25 35C25 39.237 26.984 43.092 30.125 45.562C24.452 48.302 20 53.93 20 60H25C25 53.373 31.373 47 40 47C48.627 47 55 53.373 55 60H60C60 53.93 55.548 48.302 49.875 45.562C53.016 43.092 55 39.237 55 35C55 26.716 48.284 20 40 20ZM40 25C45.514 25 50 29.486 50 35C50 40.514 45.514 45 40 45C34.486 45 30 40.514 30 35C30 29.486 34.486 25 40 25Z" fill="#2196F3"/>
</svg> 