<?xml version="1.0" encoding="UTF-8"?>
<svg width="80" height="80" viewBox="0 0 80 80" fill="none" xmlns="http://www.w3.org/2000/svg">
    <rect width="80" height="80" rx="40" fill="#E8F3FF"/>
    <path d="M45 20H25C22.791 20 21 21.791 21 24V56C21 58.209 22.791 60 25 60H55C57.209 60 59 58.209 59 56V34L45 20ZM45 35V23L57 35H45ZM30 30H40V35H30V30ZM50 50H30V45H50V50ZM50 40H30V35H40V30H50V40Z" fill="#2196F3"/>
    <circle cx="60" cy="60" r="15" fill="#4CAF50"/>
    <path d="M55 60L58 63L65 56" stroke="white" stroke-width="2" stroke-linecap="round" stroke-linejoin="round"/>
</svg> 